<?xml version="1.0" encoding="UTF-8"?>
<svg id="Capa_1" data-name="Capa 1" xmlns="http://www.w3.org/2000/svg" viewBox="0 0 1030.28 728.48">
  <defs>
    <style>
      .cls-1 {
        fill: #fff;
      }
    </style>
  </defs>
  <g>
    <path class="cls-1" d="M86.12,362.37c8.37-1.91,16.76-4.07,25.24-5.55,7.81-1.37,22.56-4.79,29.51-1.77,8.77,3.81,7.14,16.52-2.5,18.03l-58.14,12.26c-10.57,27.71-19.72,56.08-25.19,85.31-4.48,6.47-14.05,5.61-18.26-.76-4.01-6.07-2.37-13.08-1.23-19.71,3.27-18.91,11.68-38.32,16.35-56.99-6.92.28-14.58,1.85-16.42-7.08-3.39-16.52,21.72-12.74,24.68-17.89l19.08-59.14c-9.58.87-39.23,15.32-42.79-.19-1.86-8.09,1.97-11.6,9.13-13.92,13.1-4.25,28.52-6.4,41.81-10.78,2.86-13.84,16.14-25.71,22.71-6.86,29.44-8.13,60.39-17.5,90.92-20.55,10.36-1.03,39.11-4.15,44.88,5.94,3.05,5.32.05,13.99-5.98,15.36-5.61,1.27-16.41-1.08-23.3-.81-7.74.3-17.31,2.03-25.1,3.26-28.77,4.54-56.7,13.63-84.87,20.74l-20.53,61.11Z"/>
    <path class="cls-1" d="M581.9,419.09c12.09-1.69,24.46-4.2,36.67-4.88,11.87-.66,50.66-2.65,44.04,18.62-2.67,8.59-17.04,3.24-23.48,2.84-15.68-.96-34.21,2.24-49.63,5.21-12.8,2.47-35.43,10.62-47.55,6.89-8.12-2.5-7.18-11.52-3.07-17.41,12.67-18.14,36.08-38.72,51.32-56.24,12.67-14.57,40.31-44.61,40.46-64.17.07-9.48-5.97-16.39-15.3-17.73-13.81-1.98-25.3,5.4-33.98,15.38-6.26,7.19-11.23,23.11-22.98,14.21-12.72-9.64-.46-28.52,8.36-36.66,23.66-21.82,71.95-25.8,86.37,8.42,18.8,44.63-45.83,92.28-69.78,122.57-.78.98-1.89,1.26-1.45,2.94Z"/>
    <path class="cls-1" d="M353.08,370.19l7.84-11.21c6.66-9.29,22.14-23.48,33.73-14.23,8.55,6.82,3.39,26.46,4.88,26.43,1.62.27,1.88-1.33,2.65-2.24,8.81-10.48,18.87-30.36,35.39-27.99,3.58.51,6.88,2.81,8.84,5.82,10.47,16.11-11.53,51.77-9.13,70.77,1.22,9.66,10.83-3.45,16.49-.89,7.2,3.26,1.14,13.08-2.99,16.53-7.16,5.99-18.66,8.33-26.35,2.05-16.6-13.56-.04-51.26,2.48-68.94-5.25,3.42-9.28,9.22-13.17,14.2-7.56,9.68-15.79,21.83-20.75,33.03-2.45,5.54-4.08,18.56-11.04,19.31-11.75,1.27-12-10.43-11.26-19.12,1.21-14.3,9.24-31.07,9.75-45.02.04-.97.53-3.24-1.44-2.41-6.07,2.55-22.8,26.29-26.72,32.94-3.13,5.33-6.28,11.16-8.48,16.94-2.5,6.56-4.95,24.56-11.96,26.17-11.55,2.65-13.7-8.86-12.88-17.76,2.22-24.12,14.86-53.39,18.97-77.84,2.74-7.04,7.55-9.97,14.5-5.74,9.97,6.07.72,20.38.65,29.18ZM398.54,373.13v.98c.63-.33.63-.65,0-.98Z"/>
    <path class="cls-1" d="M733.46,285.22c8.52-1.76,12.73,3.34,11.52,11.52-12.11,34.32-30.44,69.59-39.79,104.66-7.1,26.63,2.86,22.4,22.73,15.34,5.47-1.95,21.21-9.67,25.82-9.39,7.56.46,9.51,10.09,3.78,15.19-7.74,6.88-40.94,18.8-51.33,19.25-20.48.88-27.05-13.01-23.83-31.22,4.73-26.79,24.12-74.99,35.36-100.88,2.69-6.21,9.04-23.07,15.75-24.45Z"/>
    <path class="cls-1" d="M931.85,304.98c-2.19,2.08-6.74,3.41-9.45,1.81-3.49-2.06-.02-10.15-4.52-13.11-6.78-4.46-15.8,12.72-18.47,17.49-9.8,17.53-16.42,36.84-22.95,55.75,11.48-1.86,26.02-8.44,37.69-6.88,5.94.79,5.79,7.45,1.91,10.8-7.02,6.07-40.06,11.07-43.29,14.89-9.63,32.78-18.44,66.12-21.41,100.33-2.9,9.5-17.66,6.28-20.22-1.95-2.88-9.31,3.41-32.58,5.7-42.88,3.77-16.92,8.64-33.63,13.22-50.34-10.52,3.07-18.04-8.99-7.55-15.37,3.32-2.02,12.18-3.49,13.85-5.71,1.79-2.37,5.95-18.26,7.62-22.69,7.16-19.01,25.16-65.21,45.02-72.32,8.15-2.92,17.42-1.14,22.63,6.13,4.23,5.91,5.73,18.79.21,24.05Z"/>
    <path class="cls-1" d="M279.72,415.18c-8.57,9.35-15.49,21.46-28.57,25.7-31.77,10.29-34.05-24.88-25.95-46.49,8.7-23.22,47.37-76.78,76.06-53.06,1.86,1.54,8.67,10.05,10.18,12.31,6.3,9.4-3.87,25.49-7.29,35.61-2.61,7.74-8.73,24.05-5.13,31.57,1.55,3.23,4.32,1.45,6.69,3.08,6.99,4.82-4.03,21.63-16.89,14.94-7.41-3.86-9.85-16.01-9.11-23.66ZM242.69,421.9c2.92,1.83,11.28-4.11,13.59-6.21,8.17-7.43,31.54-40.46,33.57-50.61,1.01-5.04-.36-11.19-6.45-10.33-15.7,2.22-40.28,41.35-41.81,56.01-.2,1.94-.18,10.32,1.1,11.13Z"/>
    <path class="cls-1" d="M939.08,406.7c-2.58,3.71,3.07,11.71,8.26,12.54,14.53,2.32,30.02-10.13,40.08-19.45,5.15-4.78,10.24-15.34,18.32-13.55,14.25,3.16-1.06,20.26-5.64,25.25-15.89,17.34-43.18,36.47-67.04,23.99-32.11-16.81-5.68-77.3,15.67-94.91,26.77-22.07,57.01-2.72,38.56,29.76-8.79,15.46-25.02,27.17-41.12,34.18-1.48.64-6.89,1.89-7.1,2.19ZM939.96,389.96c10.29-1.91,31.45-19.35,33.8-29.26,2.17-9.15-2.16-12.98-10.38-8.43-12.03,6.65-19.99,25.02-23.41,37.69Z"/>
    <path class="cls-1" d="M481.16,404.44c2.27,18.88,18.03,13.58,28.83,4.85,4.54-3.67,11.11-14.17,17.87-11,10.79,5.06-6.02,22.52-10.98,26.69-14.31,12-36.45,17.37-48.85-.08-20.09-28.28,11.84-96.01,47.86-95.84,8.77.04,16.32,7.69,17.16,16.16,2.74,27.71-26.83,53.4-51.88,59.22ZM483.13,387.8c11.08-2.38,35.33-23.91,33.07-35.44-.6-3.06-2.22-3.86-5.18-3.74-11.38.48-26.13,28.71-27.89,39.18Z"/>
    <path class="cls-1" d="M180.98,367.27c10.6-12.36,24.96-27.54,42.5-28.4,8.09-.4,15.8,2.47,13.72,11.81-1.41,6.32-8,4.81-13.01,6.52-24.03,8.2-46.79,39.84-53.7,63.64-2.87,9.87-1.65,29.13-17.09,23.35-10.9-4.07-6.9-22.13-5.22-31,4.49-23.69,13.42-47.87,18.33-71.63,2.88-6.77,7.62-8.43,14.17-4.8,10.68,5.9.72,21.57.3,30.51Z"/>
    <path class="cls-1" d="M802.11,335.08c7.97-1.74,11.81,3.47,10.94,10.97-.92,8.02-11.96,28.01-15.32,37.49-2.4,6.77-6.51,17.43-6.99,24.34-1.64,23.34,25.84-9.29,29.94-10.21,12.2-2.74,6.25,10.98,1.75,16.44-8.82,10.7-29.77,29.2-44.02,18.58-17.52-13.06.66-59.77,8.13-75.98,2.62-5.68,9.28-20.26,15.56-21.63Z"/>
    <path class="cls-1" d="M814.81,293.06c28.62-6.51,12.77,37.86-5.5,27.58-11.31-6.36-3.92-25.44,5.5-27.58Z"/>
  </g>
  <g>
    <g>
      <path class="cls-1" d="M687.64,195.4c.99.59,1.96,1.27,2.93,1.9l-8.89,13.69c-.89-.57-1.75-.7-2.17-.94-18.54-10.7-36.19-10.88-56.38-5.57-2.81.74-5.52,2.44-8.59,1.86-7.47-1.41-9.43-10.8-3.23-15.2,1.64-1.16,6.98-2.64,9.15-3.22,22.65-6.11,46.68-4.77,67.18,7.49Z"/>
      <path class="cls-1" d="M693.51,199.21c-.95-.67-1.96-1.28-2.93-1.9l-8.89,13.69c.88.58,1.36,1.31,1.74,1.6,17.32,12.58,24.67,28.63,28.03,49.23.47,2.87.02,6.03,1.8,8.6,4.33,6.25,13.7,4.22,15.2-3.23.4-1.97-.43-7.45-.78-9.66-3.64-23.18-14.64-44.58-34.18-58.31Z"/>
    </g>
    <g>
      <path class="cls-1" d="M654.99,248.45c.56.34,1.04,1.55,1.15,2.17-.59-.39-.7-1.56-1.3-1.95-2.02,3.15-4.03,6.32-6.05,9.47-3.86-2.46-9-3.34-13.49-2.75-4.5.59-10.53,4.43-12.99-1.98-2.46-6.4,5.38-8.39,9.96-9.17,7.92-1.35,15.8,0,22.72,4.21Z"/>
      <path class="cls-1" d="M654.83,248.35c-.55-.37-2.04-.27-2.65-.11.6.38,1.91-.04,2.51.34-2.01,3.16-4.05,6.31-6.05,9.47,3.86,2.47,6.81,6.77,8.16,11.09,1.35,4.33.4,11.42,7.25,10.96,6.84-.46,5.36-8.41,4.14-12.89-2.1-7.76-6.64-14.34-13.36-18.85Z"/>
    </g>
    <g>
      <path class="cls-1" d="M673.99,221.66c.91.55,1.69,2.52,1.88,3.53-.97-.64-1.14-2.54-2.11-3.17-3.29,5.12-6.55,10.29-9.85,15.41-6.27-4.01-14.64-5.43-21.94-4.48-7.31.96-17.13,7.21-21.14-3.22s8.75-13.65,16.2-14.92c12.89-2.19,25.71,0,36.96,6.84Z"/>
      <path class="cls-1" d="M673.73,221.49c-.89-.6-3.32-.43-4.31-.18.98.61,3.1-.07,4.08.55-3.27,5.14-6.59,10.26-9.85,15.4,6.27,4.01,11.08,11.01,13.27,18.04,2.2,7.04.64,18.58,11.8,17.83,11.14-.74,8.72-13.68,6.74-20.97-3.42-12.62-10.8-23.33-21.73-30.67Z"/>
    </g>
  </g>
</svg>